<mxfile host="Electron" modified="2023-10-27T07:36:11.547Z" agent="Mozilla/5.0 (Windows NT 10.0; Win64; x64) AppleWebKit/537.36 (KHTML, like Gecko) draw.io/22.0.3 Chrome/114.0.5735.289 Electron/25.8.4 Safari/537.36" etag="rwN2GJbWk6CjN1bIWEKc" version="22.0.3" type="device">
  <diagram id="R2lEEEUBdFMjLlhIrx00" name="Page-1">
    <mxGraphModel dx="2049" dy="2860" grid="1" gridSize="10" guides="1" tooltips="1" connect="1" arrows="1" fold="1" page="1" pageScale="1" pageWidth="1169" pageHeight="827" math="0" shadow="0" extFonts="Permanent Marker^https://fonts.googleapis.com/css?family=Permanent+Marker">
      <root>
        <mxCell id="0" />
        <mxCell id="1" parent="0" />
        <mxCell id="3jjZwoIs_g8T0Vt3Tc7u-12" style="edgeStyle=none;shape=connector;rounded=0;orthogonalLoop=1;jettySize=auto;html=1;labelBackgroundColor=default;strokeColor=default;align=center;verticalAlign=middle;fontFamily=Helvetica;fontSize=11;fontColor=default;endArrow=none;endFill=0;" edge="1" parent="1" source="3jjZwoIs_g8T0Vt3Tc7u-15" target="3jjZwoIs_g8T0Vt3Tc7u-4">
          <mxGeometry relative="1" as="geometry" />
        </mxCell>
        <mxCell id="3jjZwoIs_g8T0Vt3Tc7u-91" style="edgeStyle=none;shape=connector;rounded=0;orthogonalLoop=1;jettySize=auto;html=1;labelBackgroundColor=default;strokeColor=default;align=center;verticalAlign=middle;fontFamily=Helvetica;fontSize=11;fontColor=default;endArrow=none;endFill=0;" edge="1" parent="1" source="3jjZwoIs_g8T0Vt3Tc7u-1" target="3jjZwoIs_g8T0Vt3Tc7u-65">
          <mxGeometry relative="1" as="geometry" />
        </mxCell>
        <mxCell id="3jjZwoIs_g8T0Vt3Tc7u-125" value="(1:N)" style="edgeLabel;html=1;align=center;verticalAlign=middle;resizable=0;points=[];fontSize=11;fontFamily=Helvetica;fontColor=default;" vertex="1" connectable="0" parent="3jjZwoIs_g8T0Vt3Tc7u-91">
          <mxGeometry x="-0.4583" y="-1" relative="1" as="geometry">
            <mxPoint as="offset" />
          </mxGeometry>
        </mxCell>
        <mxCell id="3jjZwoIs_g8T0Vt3Tc7u-1" value="PROPIETARIOS" style="whiteSpace=wrap;html=1;align=center;fillColor=#dae8fc;strokeColor=#6c8ebf;" vertex="1" parent="1">
          <mxGeometry x="670" y="-1430" width="100" height="40" as="geometry" />
        </mxCell>
        <mxCell id="3jjZwoIs_g8T0Vt3Tc7u-13" style="edgeStyle=none;shape=connector;rounded=0;orthogonalLoop=1;jettySize=auto;html=1;labelBackgroundColor=default;strokeColor=default;align=center;verticalAlign=middle;fontFamily=Helvetica;fontSize=11;fontColor=default;endArrow=none;endFill=0;" edge="1" parent="1" source="3jjZwoIs_g8T0Vt3Tc7u-2" target="3jjZwoIs_g8T0Vt3Tc7u-4">
          <mxGeometry relative="1" as="geometry" />
        </mxCell>
        <mxCell id="3jjZwoIs_g8T0Vt3Tc7u-2" value="PRIVADO" style="whiteSpace=wrap;html=1;align=center;fillColor=#dae8fc;strokeColor=#6c8ebf;" vertex="1" parent="1">
          <mxGeometry x="920" y="-1290" width="100" height="40" as="geometry" />
        </mxCell>
        <mxCell id="3jjZwoIs_g8T0Vt3Tc7u-64" style="edgeStyle=none;shape=connector;rounded=0;orthogonalLoop=1;jettySize=auto;html=1;labelBackgroundColor=default;strokeColor=default;align=center;verticalAlign=middle;fontFamily=Helvetica;fontSize=11;fontColor=default;endArrow=none;endFill=0;" edge="1" parent="1" source="3jjZwoIs_g8T0Vt3Tc7u-3" target="3jjZwoIs_g8T0Vt3Tc7u-4">
          <mxGeometry relative="1" as="geometry" />
        </mxCell>
        <mxCell id="3jjZwoIs_g8T0Vt3Tc7u-69" style="edgeStyle=none;shape=connector;rounded=0;orthogonalLoop=1;jettySize=auto;html=1;labelBackgroundColor=default;strokeColor=default;align=center;verticalAlign=middle;fontFamily=Helvetica;fontSize=11;fontColor=default;endArrow=none;endFill=0;" edge="1" parent="1" source="3jjZwoIs_g8T0Vt3Tc7u-2" target="3jjZwoIs_g8T0Vt3Tc7u-68">
          <mxGeometry relative="1" as="geometry" />
        </mxCell>
        <mxCell id="3jjZwoIs_g8T0Vt3Tc7u-3" value="COMERCIAL" style="whiteSpace=wrap;html=1;align=center;fillColor=#dae8fc;strokeColor=#6c8ebf;" vertex="1" parent="1">
          <mxGeometry x="910" y="-1485" width="100" height="40" as="geometry" />
        </mxCell>
        <mxCell id="3jjZwoIs_g8T0Vt3Tc7u-4" value="" style="triangle;whiteSpace=wrap;html=1;rotation=0;fillColor=#f5f5f5;fontColor=#333333;strokeColor=#666666;" vertex="1" parent="1">
          <mxGeometry x="860" y="-1435" width="40" height="50" as="geometry" />
        </mxCell>
        <mxCell id="3jjZwoIs_g8T0Vt3Tc7u-16" value="" style="edgeStyle=none;shape=connector;rounded=0;orthogonalLoop=1;jettySize=auto;html=1;labelBackgroundColor=default;strokeColor=default;align=center;verticalAlign=middle;fontFamily=Helvetica;fontSize=11;fontColor=default;endArrow=none;endFill=0;" edge="1" parent="1" source="3jjZwoIs_g8T0Vt3Tc7u-1" target="3jjZwoIs_g8T0Vt3Tc7u-15">
          <mxGeometry relative="1" as="geometry">
            <mxPoint x="780" y="-1440" as="sourcePoint" />
            <mxPoint x="780" y="-1395" as="targetPoint" />
          </mxGeometry>
        </mxCell>
        <mxCell id="3jjZwoIs_g8T0Vt3Tc7u-15" value="" style="ellipse;whiteSpace=wrap;html=1;aspect=fixed;fontFamily=Helvetica;fontSize=11;fontColor=default;" vertex="1" parent="1">
          <mxGeometry x="830" y="-1415" width="10" height="10" as="geometry" />
        </mxCell>
        <mxCell id="3jjZwoIs_g8T0Vt3Tc7u-27" style="edgeStyle=none;shape=connector;rounded=0;orthogonalLoop=1;jettySize=auto;html=1;labelBackgroundColor=default;strokeColor=default;align=center;verticalAlign=middle;fontFamily=Helvetica;fontSize=11;fontColor=default;endArrow=none;endFill=0;" edge="1" parent="1" source="3jjZwoIs_g8T0Vt3Tc7u-22" target="3jjZwoIs_g8T0Vt3Tc7u-26">
          <mxGeometry relative="1" as="geometry" />
        </mxCell>
        <mxCell id="3jjZwoIs_g8T0Vt3Tc7u-111" style="edgeStyle=none;shape=connector;rounded=0;orthogonalLoop=1;jettySize=auto;html=1;labelBackgroundColor=default;strokeColor=default;align=center;verticalAlign=middle;fontFamily=Helvetica;fontSize=11;fontColor=default;endArrow=none;endFill=0;" edge="1" parent="1" source="3jjZwoIs_g8T0Vt3Tc7u-22" target="3jjZwoIs_g8T0Vt3Tc7u-108">
          <mxGeometry relative="1" as="geometry" />
        </mxCell>
        <mxCell id="3jjZwoIs_g8T0Vt3Tc7u-117" value="(1:N)" style="edgeLabel;html=1;align=center;verticalAlign=middle;resizable=0;points=[];fontSize=11;fontFamily=Helvetica;fontColor=default;" vertex="1" connectable="0" parent="3jjZwoIs_g8T0Vt3Tc7u-111">
          <mxGeometry x="-0.6085" y="-1" relative="1" as="geometry">
            <mxPoint as="offset" />
          </mxGeometry>
        </mxCell>
        <mxCell id="3jjZwoIs_g8T0Vt3Tc7u-22" value="EMPLEADO" style="whiteSpace=wrap;html=1;align=center;fontFamily=Helvetica;fontSize=11;fillColor=#dae8fc;strokeColor=#6c8ebf;" vertex="1" parent="1">
          <mxGeometry x="240" y="-1509" width="100" height="40" as="geometry" />
        </mxCell>
        <mxCell id="3jjZwoIs_g8T0Vt3Tc7u-43" style="edgeStyle=none;shape=connector;rounded=0;orthogonalLoop=1;jettySize=auto;html=1;labelBackgroundColor=default;strokeColor=default;align=center;verticalAlign=middle;fontFamily=Helvetica;fontSize=11;fontColor=default;endArrow=none;endFill=0;" edge="1" parent="1" source="3jjZwoIs_g8T0Vt3Tc7u-24" target="3jjZwoIs_g8T0Vt3Tc7u-42">
          <mxGeometry relative="1" as="geometry" />
        </mxCell>
        <mxCell id="3jjZwoIs_g8T0Vt3Tc7u-113" value="(1:1)" style="edgeLabel;html=1;align=center;verticalAlign=middle;resizable=0;points=[];fontSize=11;fontFamily=Helvetica;fontColor=default;" vertex="1" connectable="0" parent="3jjZwoIs_g8T0Vt3Tc7u-43">
          <mxGeometry x="-0.6884" y="-1" relative="1" as="geometry">
            <mxPoint as="offset" />
          </mxGeometry>
        </mxCell>
        <mxCell id="3jjZwoIs_g8T0Vt3Tc7u-24" value="GESTOR" style="whiteSpace=wrap;html=1;align=center;fontFamily=Helvetica;fontSize=11;fillColor=#dae8fc;strokeColor=#6c8ebf;" vertex="1" parent="1">
          <mxGeometry x="160" y="-1329" width="100" height="40" as="geometry" />
        </mxCell>
        <mxCell id="3jjZwoIs_g8T0Vt3Tc7u-46" style="edgeStyle=none;shape=connector;rounded=0;orthogonalLoop=1;jettySize=auto;html=1;labelBackgroundColor=default;strokeColor=default;align=center;verticalAlign=middle;fontFamily=Helvetica;fontSize=11;fontColor=default;endArrow=none;endFill=0;" edge="1" parent="1" source="3jjZwoIs_g8T0Vt3Tc7u-25" target="3jjZwoIs_g8T0Vt3Tc7u-45">
          <mxGeometry relative="1" as="geometry" />
        </mxCell>
        <mxCell id="3jjZwoIs_g8T0Vt3Tc7u-115" value="(1:N)" style="edgeLabel;html=1;align=center;verticalAlign=middle;resizable=0;points=[];fontSize=11;fontFamily=Helvetica;fontColor=default;" vertex="1" connectable="0" parent="3jjZwoIs_g8T0Vt3Tc7u-46">
          <mxGeometry x="-0.5506" relative="1" as="geometry">
            <mxPoint as="offset" />
          </mxGeometry>
        </mxCell>
        <mxCell id="3jjZwoIs_g8T0Vt3Tc7u-25" value="SUPERVISOR" style="whiteSpace=wrap;html=1;align=center;fontFamily=Helvetica;fontSize=11;fillColor=#dae8fc;strokeColor=#6c8ebf;" vertex="1" parent="1">
          <mxGeometry x="310" y="-1329" width="100" height="40" as="geometry" />
        </mxCell>
        <mxCell id="3jjZwoIs_g8T0Vt3Tc7u-28" style="edgeStyle=none;shape=connector;rounded=0;orthogonalLoop=1;jettySize=auto;html=1;labelBackgroundColor=default;strokeColor=default;align=center;verticalAlign=middle;fontFamily=Helvetica;fontSize=11;fontColor=default;endArrow=none;endFill=0;" edge="1" parent="1" source="3jjZwoIs_g8T0Vt3Tc7u-26" target="3jjZwoIs_g8T0Vt3Tc7u-24">
          <mxGeometry relative="1" as="geometry" />
        </mxCell>
        <mxCell id="3jjZwoIs_g8T0Vt3Tc7u-29" style="edgeStyle=none;shape=connector;rounded=0;orthogonalLoop=1;jettySize=auto;html=1;labelBackgroundColor=default;strokeColor=default;align=center;verticalAlign=middle;fontFamily=Helvetica;fontSize=11;fontColor=default;endArrow=none;endFill=0;" edge="1" parent="1" source="3jjZwoIs_g8T0Vt3Tc7u-26" target="3jjZwoIs_g8T0Vt3Tc7u-25">
          <mxGeometry relative="1" as="geometry" />
        </mxCell>
        <mxCell id="3jjZwoIs_g8T0Vt3Tc7u-26" value="" style="triangle;whiteSpace=wrap;html=1;rotation=90;fillColor=#f5f5f5;fontColor=#333333;strokeColor=#666666;" vertex="1" parent="1">
          <mxGeometry x="270" y="-1439" width="40" height="50" as="geometry" />
        </mxCell>
        <mxCell id="3jjZwoIs_g8T0Vt3Tc7u-32" style="edgeStyle=none;shape=connector;rounded=0;orthogonalLoop=1;jettySize=auto;html=1;labelBackgroundColor=default;strokeColor=default;align=center;verticalAlign=middle;fontFamily=Helvetica;fontSize=11;fontColor=default;endArrow=none;endFill=0;" edge="1" parent="1" source="3jjZwoIs_g8T0Vt3Tc7u-31" target="3jjZwoIs_g8T0Vt3Tc7u-22">
          <mxGeometry relative="1" as="geometry" />
        </mxCell>
        <mxCell id="3jjZwoIs_g8T0Vt3Tc7u-31" value="NumeroEmpleado" style="ellipse;whiteSpace=wrap;html=1;align=center;fontStyle=4;fontFamily=Helvetica;fontSize=11;fillColor=#fff2cc;strokeColor=#d6b656;" vertex="1" parent="1">
          <mxGeometry x="90" y="-1509" width="100" height="40" as="geometry" />
        </mxCell>
        <mxCell id="3jjZwoIs_g8T0Vt3Tc7u-34" value="" style="edgeStyle=none;shape=connector;rounded=0;orthogonalLoop=1;jettySize=auto;html=1;labelBackgroundColor=default;strokeColor=default;align=center;verticalAlign=middle;fontFamily=Helvetica;fontSize=11;fontColor=default;endArrow=none;endFill=0;" edge="1" parent="1" source="3jjZwoIs_g8T0Vt3Tc7u-26" target="3jjZwoIs_g8T0Vt3Tc7u-33">
          <mxGeometry relative="1" as="geometry">
            <mxPoint x="296" y="-1404" as="sourcePoint" />
            <mxPoint x="347" y="-1329" as="targetPoint" />
          </mxGeometry>
        </mxCell>
        <mxCell id="3jjZwoIs_g8T0Vt3Tc7u-33" value="" style="shape=requiredInterface;html=1;verticalLabelPosition=bottom;sketch=0;fontFamily=Helvetica;fontSize=11;fontColor=default;rotation=90;" vertex="1" parent="1">
          <mxGeometry x="270" y="-1429" width="40" height="70" as="geometry" />
        </mxCell>
        <mxCell id="3jjZwoIs_g8T0Vt3Tc7u-36" value="" style="edgeStyle=none;shape=connector;rounded=0;orthogonalLoop=1;jettySize=auto;html=1;labelBackgroundColor=default;strokeColor=default;align=center;verticalAlign=middle;fontFamily=Helvetica;fontSize=11;fontColor=default;endArrow=none;endFill=0;" edge="1" parent="1" source="3jjZwoIs_g8T0Vt3Tc7u-35" target="3jjZwoIs_g8T0Vt3Tc7u-4">
          <mxGeometry relative="1" as="geometry">
            <mxPoint x="843" y="-1300" as="sourcePoint" />
            <mxPoint x="787" y="-1366" as="targetPoint" />
          </mxGeometry>
        </mxCell>
        <mxCell id="3jjZwoIs_g8T0Vt3Tc7u-39" style="edgeStyle=none;shape=connector;rounded=0;orthogonalLoop=1;jettySize=auto;html=1;labelBackgroundColor=default;strokeColor=default;align=center;verticalAlign=middle;fontFamily=Helvetica;fontSize=11;fontColor=default;endArrow=none;endFill=0;" edge="1" parent="1" source="3jjZwoIs_g8T0Vt3Tc7u-37" target="3jjZwoIs_g8T0Vt3Tc7u-24">
          <mxGeometry relative="1" as="geometry" />
        </mxCell>
        <mxCell id="3jjZwoIs_g8T0Vt3Tc7u-37" value="FechaInicio" style="ellipse;whiteSpace=wrap;html=1;align=center;fontFamily=Helvetica;fontSize=11;fillColor=#fff2cc;strokeColor=#d6b656;" vertex="1" parent="1">
          <mxGeometry x="30" y="-1389" width="100" height="40" as="geometry" />
        </mxCell>
        <mxCell id="3jjZwoIs_g8T0Vt3Tc7u-40" style="edgeStyle=none;shape=connector;rounded=0;orthogonalLoop=1;jettySize=auto;html=1;labelBackgroundColor=default;strokeColor=default;align=center;verticalAlign=middle;fontFamily=Helvetica;fontSize=11;fontColor=default;endArrow=none;endFill=0;" edge="1" parent="1" source="3jjZwoIs_g8T0Vt3Tc7u-38" target="3jjZwoIs_g8T0Vt3Tc7u-24">
          <mxGeometry relative="1" as="geometry" />
        </mxCell>
        <mxCell id="3jjZwoIs_g8T0Vt3Tc7u-38" value="Bonus" style="ellipse;whiteSpace=wrap;html=1;align=center;fontFamily=Helvetica;fontSize=11;fillColor=#fff2cc;strokeColor=#d6b656;" vertex="1" parent="1">
          <mxGeometry x="40" y="-1294" width="100" height="40" as="geometry" />
        </mxCell>
        <mxCell id="3jjZwoIs_g8T0Vt3Tc7u-79" style="edgeStyle=none;shape=connector;rounded=0;orthogonalLoop=1;jettySize=auto;html=1;labelBackgroundColor=default;strokeColor=default;align=center;verticalAlign=middle;fontFamily=Helvetica;fontSize=11;fontColor=default;endArrow=none;endFill=0;" edge="1" parent="1" source="3jjZwoIs_g8T0Vt3Tc7u-41" target="3jjZwoIs_g8T0Vt3Tc7u-77">
          <mxGeometry relative="1" as="geometry" />
        </mxCell>
        <mxCell id="3jjZwoIs_g8T0Vt3Tc7u-121" value="(1:N)" style="edgeLabel;html=1;align=center;verticalAlign=middle;resizable=0;points=[];fontSize=11;fontFamily=Helvetica;fontColor=default;" vertex="1" connectable="0" parent="3jjZwoIs_g8T0Vt3Tc7u-79">
          <mxGeometry x="-0.5089" y="-1" relative="1" as="geometry">
            <mxPoint as="offset" />
          </mxGeometry>
        </mxCell>
        <mxCell id="3jjZwoIs_g8T0Vt3Tc7u-41" value="OFICINA" style="whiteSpace=wrap;html=1;align=center;fontFamily=Helvetica;fontSize=11;fillColor=#dae8fc;strokeColor=#6c8ebf;" vertex="1" parent="1">
          <mxGeometry x="260" y="-1005" width="100" height="40" as="geometry" />
        </mxCell>
        <mxCell id="3jjZwoIs_g8T0Vt3Tc7u-44" style="edgeStyle=none;shape=connector;rounded=0;orthogonalLoop=1;jettySize=auto;html=1;labelBackgroundColor=default;strokeColor=default;align=center;verticalAlign=middle;fontFamily=Helvetica;fontSize=11;fontColor=default;endArrow=none;endFill=0;" edge="1" parent="1" source="3jjZwoIs_g8T0Vt3Tc7u-42" target="3jjZwoIs_g8T0Vt3Tc7u-41">
          <mxGeometry relative="1" as="geometry" />
        </mxCell>
        <mxCell id="3jjZwoIs_g8T0Vt3Tc7u-114" value="(1:1)" style="edgeLabel;html=1;align=center;verticalAlign=middle;resizable=0;points=[];fontSize=11;fontFamily=Helvetica;fontColor=default;" vertex="1" connectable="0" parent="3jjZwoIs_g8T0Vt3Tc7u-44">
          <mxGeometry x="0.45" relative="1" as="geometry">
            <mxPoint as="offset" />
          </mxGeometry>
        </mxCell>
        <mxCell id="3jjZwoIs_g8T0Vt3Tc7u-42" value="DIRIGIR&lt;br&gt;1:1" style="shape=rhombus;perimeter=rhombusPerimeter;whiteSpace=wrap;html=1;align=center;fontFamily=Helvetica;fontSize=11;fillColor=#d5e8d4;strokeColor=#82b366;" vertex="1" parent="1">
          <mxGeometry x="250" y="-1145" width="120" height="60" as="geometry" />
        </mxCell>
        <mxCell id="3jjZwoIs_g8T0Vt3Tc7u-47" style="edgeStyle=none;shape=connector;rounded=0;orthogonalLoop=1;jettySize=auto;html=1;labelBackgroundColor=default;strokeColor=default;align=center;verticalAlign=middle;fontFamily=Helvetica;fontSize=11;fontColor=default;endArrow=none;endFill=0;" edge="1" parent="1" source="3jjZwoIs_g8T0Vt3Tc7u-45" target="3jjZwoIs_g8T0Vt3Tc7u-22">
          <mxGeometry relative="1" as="geometry" />
        </mxCell>
        <mxCell id="3jjZwoIs_g8T0Vt3Tc7u-116" value="(1:1)" style="edgeLabel;html=1;align=center;verticalAlign=middle;resizable=0;points=[];fontSize=11;fontFamily=Helvetica;fontColor=default;" vertex="1" connectable="0" parent="3jjZwoIs_g8T0Vt3Tc7u-47">
          <mxGeometry x="0.3615" relative="1" as="geometry">
            <mxPoint y="1" as="offset" />
          </mxGeometry>
        </mxCell>
        <mxCell id="3jjZwoIs_g8T0Vt3Tc7u-45" value="SUPERVISAR&lt;br&gt;1:N" style="shape=rhombus;perimeter=rhombusPerimeter;whiteSpace=wrap;html=1;align=center;fontFamily=Helvetica;fontSize=11;fillColor=#d5e8d4;strokeColor=#82b366;" vertex="1" parent="1">
          <mxGeometry x="350" y="-1429" width="120" height="60" as="geometry" />
        </mxCell>
        <mxCell id="3jjZwoIs_g8T0Vt3Tc7u-51" style="edgeStyle=none;shape=connector;rounded=0;orthogonalLoop=1;jettySize=auto;html=1;labelBackgroundColor=default;strokeColor=default;align=center;verticalAlign=middle;fontFamily=Helvetica;fontSize=11;fontColor=default;endArrow=none;endFill=0;" edge="1" parent="1" source="3jjZwoIs_g8T0Vt3Tc7u-48" target="3jjZwoIs_g8T0Vt3Tc7u-1">
          <mxGeometry relative="1" as="geometry" />
        </mxCell>
        <mxCell id="3jjZwoIs_g8T0Vt3Tc7u-48" value="Direccion" style="ellipse;whiteSpace=wrap;html=1;align=center;fontFamily=Helvetica;fontSize=11;fillColor=#fff2cc;strokeColor=#d6b656;" vertex="1" parent="1">
          <mxGeometry x="750" y="-1530" width="100" height="40" as="geometry" />
        </mxCell>
        <mxCell id="3jjZwoIs_g8T0Vt3Tc7u-50" style="edgeStyle=none;shape=connector;rounded=0;orthogonalLoop=1;jettySize=auto;html=1;labelBackgroundColor=default;strokeColor=default;align=center;verticalAlign=middle;fontFamily=Helvetica;fontSize=11;fontColor=default;endArrow=none;endFill=0;" edge="1" parent="1" source="3jjZwoIs_g8T0Vt3Tc7u-49" target="3jjZwoIs_g8T0Vt3Tc7u-1">
          <mxGeometry relative="1" as="geometry" />
        </mxCell>
        <mxCell id="3jjZwoIs_g8T0Vt3Tc7u-49" value="Telefono" style="ellipse;whiteSpace=wrap;html=1;align=center;fontFamily=Helvetica;fontSize=11;fillColor=#fff2cc;strokeColor=#d6b656;" vertex="1" parent="1">
          <mxGeometry x="570" y="-1540" width="100" height="40" as="geometry" />
        </mxCell>
        <mxCell id="3jjZwoIs_g8T0Vt3Tc7u-54" style="edgeStyle=none;shape=connector;rounded=0;orthogonalLoop=1;jettySize=auto;html=1;labelBackgroundColor=default;strokeColor=default;align=center;verticalAlign=middle;fontFamily=Helvetica;fontSize=11;fontColor=default;endArrow=none;endFill=0;" edge="1" parent="1" source="3jjZwoIs_g8T0Vt3Tc7u-52" target="3jjZwoIs_g8T0Vt3Tc7u-2">
          <mxGeometry relative="1" as="geometry" />
        </mxCell>
        <mxCell id="3jjZwoIs_g8T0Vt3Tc7u-52" value="NumeroPropietario" style="ellipse;whiteSpace=wrap;html=1;align=center;fontStyle=4;fontFamily=Helvetica;fontSize=11;fillColor=#fff2cc;strokeColor=#d6b656;" vertex="1" parent="1">
          <mxGeometry x="1020" y="-1230" width="100" height="40" as="geometry" />
        </mxCell>
        <mxCell id="3jjZwoIs_g8T0Vt3Tc7u-55" style="edgeStyle=none;shape=connector;rounded=0;orthogonalLoop=1;jettySize=auto;html=1;labelBackgroundColor=default;strokeColor=default;align=center;verticalAlign=middle;fontFamily=Helvetica;fontSize=11;fontColor=default;endArrow=none;endFill=0;" edge="1" parent="1" source="3jjZwoIs_g8T0Vt3Tc7u-53" target="3jjZwoIs_g8T0Vt3Tc7u-3">
          <mxGeometry relative="1" as="geometry" />
        </mxCell>
        <mxCell id="3jjZwoIs_g8T0Vt3Tc7u-53" value="Cif" style="ellipse;whiteSpace=wrap;html=1;align=center;fontStyle=4;fontFamily=Helvetica;fontSize=11;fillColor=#fff2cc;strokeColor=#d6b656;" vertex="1" parent="1">
          <mxGeometry x="920" y="-1570" width="100" height="40" as="geometry" />
        </mxCell>
        <mxCell id="3jjZwoIs_g8T0Vt3Tc7u-82" style="edgeStyle=none;shape=connector;rounded=0;orthogonalLoop=1;jettySize=auto;html=1;labelBackgroundColor=default;strokeColor=default;align=center;verticalAlign=middle;fontFamily=Helvetica;fontSize=11;fontColor=default;endArrow=none;endFill=0;" edge="1" parent="1" source="3jjZwoIs_g8T0Vt3Tc7u-56" target="3jjZwoIs_g8T0Vt3Tc7u-78">
          <mxGeometry relative="1" as="geometry" />
        </mxCell>
        <mxCell id="3jjZwoIs_g8T0Vt3Tc7u-123" value="(1:N)" style="edgeLabel;html=1;align=center;verticalAlign=middle;resizable=0;points=[];fontSize=11;fontFamily=Helvetica;fontColor=default;" vertex="1" connectable="0" parent="3jjZwoIs_g8T0Vt3Tc7u-82">
          <mxGeometry x="0.1179" y="1" relative="1" as="geometry">
            <mxPoint as="offset" />
          </mxGeometry>
        </mxCell>
        <mxCell id="3jjZwoIs_g8T0Vt3Tc7u-56" value="PROPIEDADES" style="whiteSpace=wrap;html=1;align=center;fontFamily=Helvetica;fontSize=11;fillColor=#dae8fc;strokeColor=#6c8ebf;" vertex="1" parent="1">
          <mxGeometry x="700" y="-1185" width="100" height="40" as="geometry" />
        </mxCell>
        <mxCell id="3jjZwoIs_g8T0Vt3Tc7u-35" value="" style="shape=requiredInterface;html=1;verticalLabelPosition=bottom;sketch=0;fontFamily=Helvetica;fontSize=11;fontColor=default;rotation=0;" vertex="1" parent="1">
          <mxGeometry x="870" y="-1445" width="40" height="70" as="geometry" />
        </mxCell>
        <mxCell id="3jjZwoIs_g8T0Vt3Tc7u-67" style="edgeStyle=none;shape=connector;rounded=0;orthogonalLoop=1;jettySize=auto;html=1;labelBackgroundColor=default;strokeColor=default;align=center;verticalAlign=middle;fontFamily=Helvetica;fontSize=11;fontColor=default;endArrow=none;endFill=0;" edge="1" parent="1" source="3jjZwoIs_g8T0Vt3Tc7u-65" target="3jjZwoIs_g8T0Vt3Tc7u-56">
          <mxGeometry relative="1" as="geometry" />
        </mxCell>
        <mxCell id="3jjZwoIs_g8T0Vt3Tc7u-126" value="(1:1)" style="edgeLabel;html=1;align=center;verticalAlign=middle;resizable=0;points=[];fontSize=11;fontFamily=Helvetica;fontColor=default;" vertex="1" connectable="0" parent="3jjZwoIs_g8T0Vt3Tc7u-67">
          <mxGeometry x="0.4673" y="1" relative="1" as="geometry">
            <mxPoint as="offset" />
          </mxGeometry>
        </mxCell>
        <mxCell id="3jjZwoIs_g8T0Vt3Tc7u-65" value="POSEER&lt;br&gt;1:N" style="shape=rhombus;perimeter=rhombusPerimeter;whiteSpace=wrap;html=1;align=center;fontFamily=Helvetica;fontSize=11;fillColor=#d5e8d4;strokeColor=#82b366;" vertex="1" parent="1">
          <mxGeometry x="670" y="-1325" width="120" height="60" as="geometry" />
        </mxCell>
        <mxCell id="3jjZwoIs_g8T0Vt3Tc7u-68" value="Nombre" style="ellipse;whiteSpace=wrap;html=1;align=center;fontFamily=Helvetica;fontSize=11;fillColor=#fff2cc;strokeColor=#d6b656;" vertex="1" parent="1">
          <mxGeometry x="1040" y="-1315" width="100" height="40" as="geometry" />
        </mxCell>
        <mxCell id="3jjZwoIs_g8T0Vt3Tc7u-73" style="edgeStyle=none;shape=connector;rounded=0;orthogonalLoop=1;jettySize=auto;html=1;labelBackgroundColor=default;strokeColor=default;align=center;verticalAlign=middle;fontFamily=Helvetica;fontSize=11;fontColor=default;endArrow=none;endFill=0;" edge="1" parent="1" source="3jjZwoIs_g8T0Vt3Tc7u-70" target="3jjZwoIs_g8T0Vt3Tc7u-3">
          <mxGeometry relative="1" as="geometry" />
        </mxCell>
        <mxCell id="3jjZwoIs_g8T0Vt3Tc7u-70" value="Nombre" style="ellipse;whiteSpace=wrap;html=1;align=center;fontFamily=Helvetica;fontSize=11;fillColor=#fff2cc;strokeColor=#d6b656;" vertex="1" parent="1">
          <mxGeometry x="1040" y="-1565" width="100" height="40" as="geometry" />
        </mxCell>
        <mxCell id="3jjZwoIs_g8T0Vt3Tc7u-74" style="edgeStyle=none;shape=connector;rounded=0;orthogonalLoop=1;jettySize=auto;html=1;labelBackgroundColor=default;strokeColor=default;align=center;verticalAlign=middle;fontFamily=Helvetica;fontSize=11;fontColor=default;endArrow=none;endFill=0;" edge="1" parent="1" source="3jjZwoIs_g8T0Vt3Tc7u-71" target="3jjZwoIs_g8T0Vt3Tc7u-3">
          <mxGeometry relative="1" as="geometry" />
        </mxCell>
        <mxCell id="3jjZwoIs_g8T0Vt3Tc7u-71" value="Tipo" style="ellipse;whiteSpace=wrap;html=1;align=center;fontFamily=Helvetica;fontSize=11;fillColor=#fff2cc;strokeColor=#d6b656;" vertex="1" parent="1">
          <mxGeometry x="1040" y="-1515" width="100" height="40" as="geometry" />
        </mxCell>
        <mxCell id="3jjZwoIs_g8T0Vt3Tc7u-75" style="edgeStyle=none;shape=connector;rounded=0;orthogonalLoop=1;jettySize=auto;html=1;labelBackgroundColor=default;strokeColor=default;align=center;verticalAlign=middle;fontFamily=Helvetica;fontSize=11;fontColor=default;endArrow=none;endFill=0;" edge="1" parent="1" source="3jjZwoIs_g8T0Vt3Tc7u-72" target="3jjZwoIs_g8T0Vt3Tc7u-3">
          <mxGeometry relative="1" as="geometry" />
        </mxCell>
        <mxCell id="3jjZwoIs_g8T0Vt3Tc7u-72" value="Contacto" style="ellipse;whiteSpace=wrap;html=1;align=center;fontFamily=Helvetica;fontSize=11;fillColor=#fff2cc;strokeColor=#d6b656;" vertex="1" parent="1">
          <mxGeometry x="1040" y="-1470" width="100" height="40" as="geometry" />
        </mxCell>
        <mxCell id="3jjZwoIs_g8T0Vt3Tc7u-76" value="ANUNCIOPERIODICO" style="whiteSpace=wrap;html=1;align=center;fontFamily=Helvetica;fontSize=11;fillColor=#dae8fc;strokeColor=#6c8ebf;" vertex="1" parent="1">
          <mxGeometry x="520" y="-1145" width="100" height="40" as="geometry" />
        </mxCell>
        <mxCell id="3jjZwoIs_g8T0Vt3Tc7u-80" style="edgeStyle=none;shape=connector;rounded=0;orthogonalLoop=1;jettySize=auto;html=1;labelBackgroundColor=default;strokeColor=default;align=center;verticalAlign=middle;fontFamily=Helvetica;fontSize=11;fontColor=default;endArrow=none;endFill=0;" edge="1" parent="1" source="3jjZwoIs_g8T0Vt3Tc7u-77" target="3jjZwoIs_g8T0Vt3Tc7u-76">
          <mxGeometry relative="1" as="geometry" />
        </mxCell>
        <mxCell id="3jjZwoIs_g8T0Vt3Tc7u-122" value="(1:1)" style="edgeLabel;html=1;align=center;verticalAlign=middle;resizable=0;points=[];fontSize=11;fontFamily=Helvetica;fontColor=default;" vertex="1" connectable="0" parent="3jjZwoIs_g8T0Vt3Tc7u-80">
          <mxGeometry x="0.654" relative="1" as="geometry">
            <mxPoint as="offset" />
          </mxGeometry>
        </mxCell>
        <mxCell id="3jjZwoIs_g8T0Vt3Tc7u-77" value="PUBLICAR&lt;br&gt;1:N" style="shape=rhombus;perimeter=rhombusPerimeter;whiteSpace=wrap;html=1;align=center;fontFamily=Helvetica;fontSize=11;fillColor=#d5e8d4;strokeColor=#82b366;" vertex="1" parent="1">
          <mxGeometry x="440" y="-1005" width="120" height="60" as="geometry" />
        </mxCell>
        <mxCell id="3jjZwoIs_g8T0Vt3Tc7u-81" style="edgeStyle=none;shape=connector;rounded=0;orthogonalLoop=1;jettySize=auto;html=1;labelBackgroundColor=default;strokeColor=default;align=center;verticalAlign=middle;fontFamily=Helvetica;fontSize=11;fontColor=default;endArrow=none;endFill=0;" edge="1" parent="1" source="3jjZwoIs_g8T0Vt3Tc7u-78" target="3jjZwoIs_g8T0Vt3Tc7u-76">
          <mxGeometry relative="1" as="geometry" />
        </mxCell>
        <mxCell id="3jjZwoIs_g8T0Vt3Tc7u-124" value="(1:1)" style="edgeLabel;html=1;align=center;verticalAlign=middle;resizable=0;points=[];fontSize=11;fontFamily=Helvetica;fontColor=default;" vertex="1" connectable="0" parent="3jjZwoIs_g8T0Vt3Tc7u-81">
          <mxGeometry x="0.4471" y="-1" relative="1" as="geometry">
            <mxPoint as="offset" />
          </mxGeometry>
        </mxCell>
        <mxCell id="3jjZwoIs_g8T0Vt3Tc7u-78" value="APARECER&lt;br&gt;1:N" style="shape=rhombus;perimeter=rhombusPerimeter;whiteSpace=wrap;html=1;align=center;fontFamily=Helvetica;fontSize=11;fillColor=#d5e8d4;strokeColor=#82b366;" vertex="1" parent="1">
          <mxGeometry x="760" y="-1085" width="120" height="60" as="geometry" />
        </mxCell>
        <mxCell id="3jjZwoIs_g8T0Vt3Tc7u-103" style="edgeStyle=none;shape=connector;rounded=0;orthogonalLoop=1;jettySize=auto;html=1;labelBackgroundColor=default;strokeColor=default;align=center;verticalAlign=middle;fontFamily=Helvetica;fontSize=11;fontColor=default;endArrow=none;endFill=0;" edge="1" parent="1" source="3jjZwoIs_g8T0Vt3Tc7u-22" target="3jjZwoIs_g8T0Vt3Tc7u-102">
          <mxGeometry relative="1" as="geometry" />
        </mxCell>
        <mxCell id="3jjZwoIs_g8T0Vt3Tc7u-119" value="(1:1)" style="edgeLabel;html=1;align=center;verticalAlign=middle;resizable=0;points=[];fontSize=11;fontFamily=Helvetica;fontColor=default;" vertex="1" connectable="0" parent="3jjZwoIs_g8T0Vt3Tc7u-103">
          <mxGeometry x="-0.8203" y="1" relative="1" as="geometry">
            <mxPoint as="offset" />
          </mxGeometry>
        </mxCell>
        <mxCell id="3jjZwoIs_g8T0Vt3Tc7u-104" style="edgeStyle=none;shape=connector;rounded=0;orthogonalLoop=1;jettySize=auto;html=1;labelBackgroundColor=default;strokeColor=default;align=center;verticalAlign=middle;fontFamily=Helvetica;fontSize=11;fontColor=default;endArrow=none;endFill=0;" edge="1" parent="1" source="3jjZwoIs_g8T0Vt3Tc7u-102" target="3jjZwoIs_g8T0Vt3Tc7u-41">
          <mxGeometry relative="1" as="geometry" />
        </mxCell>
        <mxCell id="3jjZwoIs_g8T0Vt3Tc7u-120" value="(1:N)" style="edgeLabel;html=1;align=center;verticalAlign=middle;resizable=0;points=[];fontSize=11;fontFamily=Helvetica;fontColor=default;" vertex="1" connectable="0" parent="3jjZwoIs_g8T0Vt3Tc7u-104">
          <mxGeometry x="0.7474" y="-2" relative="1" as="geometry">
            <mxPoint x="-1" as="offset" />
          </mxGeometry>
        </mxCell>
        <mxCell id="3jjZwoIs_g8T0Vt3Tc7u-102" value="PERTENECER&lt;br&gt;1:N" style="shape=rhombus;perimeter=rhombusPerimeter;whiteSpace=wrap;html=1;align=center;fontFamily=Helvetica;fontSize=11;fillColor=#d5e8d4;strokeColor=#82b366;" vertex="1" parent="1">
          <mxGeometry x="490" y="-1415" width="120" height="60" as="geometry" />
        </mxCell>
        <mxCell id="3jjZwoIs_g8T0Vt3Tc7u-112" style="edgeStyle=none;shape=connector;rounded=0;orthogonalLoop=1;jettySize=auto;html=1;labelBackgroundColor=default;strokeColor=default;align=center;verticalAlign=middle;fontFamily=Helvetica;fontSize=11;fontColor=default;endArrow=none;endFill=0;" edge="1" parent="1" source="3jjZwoIs_g8T0Vt3Tc7u-108" target="3jjZwoIs_g8T0Vt3Tc7u-56">
          <mxGeometry relative="1" as="geometry" />
        </mxCell>
        <mxCell id="3jjZwoIs_g8T0Vt3Tc7u-118" value="(1:1)" style="edgeLabel;html=1;align=center;verticalAlign=middle;resizable=0;points=[];fontSize=11;fontFamily=Helvetica;fontColor=default;" vertex="1" connectable="0" parent="3jjZwoIs_g8T0Vt3Tc7u-112">
          <mxGeometry x="0.7682" y="-2" relative="1" as="geometry">
            <mxPoint as="offset" />
          </mxGeometry>
        </mxCell>
        <mxCell id="3jjZwoIs_g8T0Vt3Tc7u-108" value="GESTIONAR&lt;br&gt;1:N" style="shape=rhombus;perimeter=rhombusPerimeter;whiteSpace=wrap;html=1;align=center;fontFamily=Helvetica;fontSize=11;fillColor=#d5e8d4;strokeColor=#82b366;" vertex="1" parent="1">
          <mxGeometry x="520" y="-1475" width="120" height="60" as="geometry" />
        </mxCell>
      </root>
    </mxGraphModel>
  </diagram>
</mxfile>
